<?xml version="1.0" standalone="no"?><svg xmlns="http://www.w3.org/2000/svg" viewBox="0 0 1440 320"><path fill="#39E43E" fill-opacity="1" d="M0,32L24,42.7C48,53,96,75,144,122.7C192,171,240,245,288,272C336,299,384,277,432,229.3C480,181,528,107,576,69.3C624,32,672,32,720,64C768,96,816,160,864,160C912,160,960,96,1008,85.3C1056,75,1104,117,1152,144C1200,171,1248,181,1296,170.7C1344,160,1392,128,1416,112L1440,96L1440,320L1416,320C1392,320,1344,320,1296,320C1248,320,1200,320,1152,320C1104,320,1056,320,1008,320C960,320,912,320,864,320C816,320,768,320,720,320C672,320,624,320,576,320C528,320,480,320,432,320C384,320,336,320,288,320C240,320,192,320,144,320C96,320,48,320,24,320L0,320Z"></path></svg>