<?xml version="1.0" standalone="no"?><svg xmlns="http://www.w3.org/2000/svg" viewBox="0 0 1440 320"><path fill="#003A04" fill-opacity="1" d="M0,0L24,37.3C48,75,96,149,144,181.3C192,213,240,203,288,176C336,149,384,107,432,80C480,53,528,43,576,48C624,53,672,75,720,96C768,117,816,139,864,138.7C912,139,960,117,1008,117.3C1056,117,1104,139,1152,144C1200,149,1248,139,1296,117.3C1344,96,1392,64,1416,48L1440,32L1440,320L1416,320C1392,320,1344,320,1296,320C1248,320,1200,320,1152,320C1104,320,1056,320,1008,320C960,320,912,320,864,320C816,320,768,320,720,320C672,320,624,320,576,320C528,320,480,320,432,320C384,320,336,320,288,320C240,320,192,320,144,320C96,320,48,320,24,320L0,320Z"></path></svg>